<svg class="bettorsight_head" width="805" height="126" viewBox="0 0 805 126" fill="none" xmlns="http://www.w3.org/2000/svg">
    <path class="path bettorsight loc_0" d="M4.23047 15.5H64.2305L79.8305 32V53L71.7305 61.55L82.8305 73.1V96.5L67.2305 113H4.23047V101H14.7305V27.5H4.23047V15.5ZM28.5305 68.6V100.1H61.2305L69.9305 91.25V78.35L60.4805 68.6H28.5305ZM28.5305 28.4V56.6H58.2305L66.9305 47.75V37.25L58.3805 28.4H28.5305Z" fill="black" style="fill: black;"></path>
    <path class="path bettorsight loc_1" d="M96.4554 33H153.575V56.52H143.975V42.6H115.895V67.2H143.975V76.8H115.895V101.4H143.975V87.48H153.575V111H96.4554V101.4H104.855V42.6H96.4554V33Z" fill="black" style="fill: black;"></path>
    <path class="path bettorsight loc_2" d="M210.515 111H175.475V101.4H187.475V42.6H170.915V56.52H161.795V33H224.195V56.52H215.075V42.6H198.515V101.4H210.515V111Z" fill="black" style="fill: black;"></path>
    <path class="path bettorsight loc_3" d="M278.515 111H243.475V101.4H255.475V42.6H238.915V56.52H229.795V33H292.195V56.52H283.075V42.6H266.515V101.4H278.515V111Z" fill="black" style="fill: black;"></path>
    <path class="path bettorsight loc_4" d="M312.057 111L299.577 97.8V46.2L312.057 33H345.897L358.377 46.2V97.8L345.897 111H312.057ZM316.737 100.68H341.097L347.337 94.32V49.68L341.217 43.32H316.857L310.617 49.68V94.32L316.737 100.68Z" fill="black" style="fill: black;"></path>
    <path class="path bettorsight loc_5" d="M364.647 33H412.647L425.127 46.2V70.2L413.007 82.92L424.167 101.4H430.527V111H409.167V101.4H412.527L401.727 83.4H384.087V101.4H391.287V111H364.647V101.4H373.047V42.6H364.647V33ZM384.087 43.32V73.08H407.847L414.807 66V50.4L407.967 43.32H384.087Z" fill="black" style="fill: black;"></path>
    <path class="path bettorsight loc_6" d="M526.529 35.9H514.079V22.7L505.079 13.4H482.129L474.329 21.35V42.05L481.679 49.55H512.879L528.029 65.45V96.5L512.429 113H474.629L459.029 96.5V77.6H471.479V90.8L480.629 100.1H506.579L514.229 92.15V69.8L507.029 62.45H475.829L460.529 46.4V17L476.129 0.5H510.929L526.529 17V35.9Z" fill="black" style="fill: black;"></path>
    <path class="path bettorsight loc_7" d="M546.404 101.4H556.004V42.6H546.404V33H576.644V42.6H567.044V101.4H576.644V111H546.404V101.4Z" fill="black" style="fill: black;"></path>
    <path class="path bettorsight loc_8" d="M638.193 80.4H621.633V70.8H647.793V97.8L635.313 111H603.873L591.393 97.8V46.2L603.873 33H635.313L647.793 46.2V61.32H638.193V51.12L630.633 43.32H608.673L602.433 49.68V94.32L608.553 100.68H630.513L638.193 92.88V80.4Z" fill="black" style="fill: black;"></path>
    <path class="path bettorsight loc_9" d="M652.08 33H679.92V42.6H671.52V67.2H708.48V42.6H700.08V33H727.92V42.6H719.52V101.4H727.92V111H700.08V101.4H708.48V76.8H671.52V101.4H679.92V111H652.08V101.4H660.48V42.6H652.08V33Z" fill="black" style="fill: black;"></path>
    <path class="path bettorsight loc_10" d="M784.515 111H749.475V101.4H761.475V42.6H744.915V56.52H735.795V33H798.195V56.52H789.075V42.6H772.515V101.4H784.515V111Z" fill="black" style="fill: black;"></path>           
</svg>